<?xml version="1.0" encoding="UTF-8"?>
<svg id="Layer_1" xmlns="http://www.w3.org/2000/svg" xmlns:xlink="http://www.w3.org/1999/xlink" version="1.1" viewBox="0 0 1649.2 364.1">
  <!-- Generator: Adobe Illustrator 30.2.1, SVG Export Plug-In . SVG Version: 2.1.1 Build 1)  -->
  <defs>
    <style>
      .st0 {
        fill: url(#radial-gradient);
      }

      .st0, .st1, .st2, .st3, .st4, .st5, .st6, .st7, .st8, .st9, .st10, .st11, .st12, .st13, .st14 {
        fill-rule: evenodd;
      }

      .st15 {
        letter-spacing: 0em;
      }

      .st15, .st16, .st17, .st18, .st19, .st20 {
        isolation: isolate;
      }

      .st15, .st16, .st17, .st18, .st20 {
        font-family: Aboreto-Regular, Aboreto;
        font-size: 74.9px;
      }

      .st16 {
        letter-spacing: 0em;
      }

      .st17 {
        letter-spacing: 0em;
      }

      .st18 {
        letter-spacing: 0em;
      }

      .st21 {
        fill: url(#linear-gradient);
      }

      .st1 {
        fill: url(#radial-gradient1);
      }

      .st2 {
        fill: url(#radial-gradient7);
      }

      .st3 {
        fill: url(#radial-gradient6);
      }

      .st4 {
        fill: url(#radial-gradient9);
      }

      .st5 {
        fill: url(#radial-gradient4);
      }

      .st6 {
        fill: url(#radial-gradient2);
      }

      .st7 {
        fill: url(#radial-gradient5);
      }

      .st8 {
        fill: url(#radial-gradient8);
      }

      .st9 {
        fill: url(#radial-gradient3);
      }

      .st10 {
        fill: url(#radial-gradient11);
      }

      .st11 {
        fill: url(#radial-gradient14);
      }

      .st12 {
        fill: url(#radial-gradient13);
      }

      .st13 {
        fill: url(#radial-gradient10);
      }

      .st14 {
        fill: url(#radial-gradient12);
      }
    </style>
    <linearGradient id="linear-gradient" x1="815.6" y1="2554.1" x2="815.6" y2="2547.9" gradientTransform="translate(0 2820) scale(1 -1)" gradientUnits="userSpaceOnUse">
      <stop offset="0" stop-color="#fffa8d"/>
      <stop offset=".5" stop-color="#e6b947"/>
      <stop offset="1" stop-color="#aa8012"/>
    </linearGradient>
    <radialGradient id="radial-gradient" cx="123.3" cy="2680.6" fx="123.3" fy="2680.6" r="187.6" gradientTransform="translate(0 2820) scale(1 -1)" gradientUnits="userSpaceOnUse">
      <stop offset="0" stop-color="#ddd358"/>
      <stop offset=".5" stop-color="#e6b947"/>
      <stop offset="1" stop-color="#aa8012"/>
    </radialGradient>
    <radialGradient id="radial-gradient1" cx="267.9" cy="2651.6" fx="267.9" fy="2651.6" r="104.1" gradientTransform="translate(0 2820) scale(1 -1)" gradientUnits="userSpaceOnUse">
      <stop offset="0" stop-color="#ddd358"/>
      <stop offset=".5" stop-color="#e6b947"/>
      <stop offset="1" stop-color="#aa8012"/>
    </radialGradient>
    <radialGradient id="radial-gradient2" cx="363.8" cy="2651.5" fx="363.8" fy="2651.5" r="114.8" gradientTransform="translate(0 2820) scale(1 -1)" gradientUnits="userSpaceOnUse">
      <stop offset="0" stop-color="#ddd358"/>
      <stop offset=".5" stop-color="#e6b947"/>
      <stop offset="1" stop-color="#aa8012"/>
    </radialGradient>
    <radialGradient id="radial-gradient3" cx="465.3" cy="2651.3" fx="465.3" fy="2651.3" r="113.6" gradientTransform="translate(0 2820) scale(1 -1)" gradientUnits="userSpaceOnUse">
      <stop offset="0" stop-color="#ddd358"/>
      <stop offset=".5" stop-color="#e6b947"/>
      <stop offset="1" stop-color="#aa8012"/>
    </radialGradient>
    <radialGradient id="radial-gradient4" cx="566.1" cy="2651.5" fx="566.1" fy="2651.5" r="112.5" gradientTransform="translate(0 2820) scale(1 -1)" gradientUnits="userSpaceOnUse">
      <stop offset="0" stop-color="#ddd358"/>
      <stop offset=".5" stop-color="#e6b947"/>
      <stop offset="1" stop-color="#aa8012"/>
    </radialGradient>
    <radialGradient id="radial-gradient5" cx="916" cy="2651.5" fx="916" fy="2651.5" r="112.5" gradientTransform="translate(0 2820) scale(1 -1)" gradientUnits="userSpaceOnUse">
      <stop offset="0" stop-color="#ddd358"/>
      <stop offset=".5" stop-color="#e6b947"/>
      <stop offset="1" stop-color="#aa8012"/>
    </radialGradient>
    <radialGradient id="radial-gradient6" cx="1011.9" cy="2651.4" fx="1011.9" fy="2651.4" r="104.8" gradientTransform="translate(0 2820) scale(1 -1)" gradientUnits="userSpaceOnUse">
      <stop offset="0" stop-color="#ddd358"/>
      <stop offset=".5" stop-color="#e6b947"/>
      <stop offset="1" stop-color="#aa8012"/>
    </radialGradient>
    <radialGradient id="radial-gradient7" cx="1098" cy="2660.5" fx="1098" fy="2660.5" r="115.7" gradientTransform="translate(0 2820) scale(1 -1)" gradientUnits="userSpaceOnUse">
      <stop offset="0" stop-color="#ddd358"/>
      <stop offset=".5" stop-color="#e6b947"/>
      <stop offset="1" stop-color="#aa8012"/>
    </radialGradient>
    <radialGradient id="radial-gradient8" cx="1195" cy="2680.3" fx="1195" fy="2680.3" r="154.5" gradientTransform="translate(0 2820) scale(1 -1)" gradientUnits="userSpaceOnUse">
      <stop offset="0" stop-color="#ddd358"/>
      <stop offset=".5" stop-color="#e6b947"/>
      <stop offset="1" stop-color="#aa8012"/>
    </radialGradient>
    <radialGradient id="radial-gradient9" cx="1308.4" cy="2651.5" fx="1308.4" fy="2651.5" r="112.5" gradientTransform="translate(0 2820) scale(1 -1)" gradientUnits="userSpaceOnUse">
      <stop offset="0" stop-color="#ddd358"/>
      <stop offset=".5" stop-color="#e6b947"/>
      <stop offset="1" stop-color="#aa8012"/>
    </radialGradient>
    <radialGradient id="radial-gradient10" cx="1400.4" cy="2660.5" fx="1400.4" fy="2660.5" r="115.7" gradientTransform="translate(0 2820) scale(1 -1)" gradientUnits="userSpaceOnUse">
      <stop offset="0" stop-color="#ddd358"/>
      <stop offset=".5" stop-color="#e6b947"/>
      <stop offset="1" stop-color="#aa8012"/>
    </radialGradient>
    <radialGradient id="radial-gradient11" cx="1463.5" cy="2651.6" fx="1463.5" fy="2651.6" r="93.4" gradientTransform="translate(0 2820) scale(1 -1)" gradientUnits="userSpaceOnUse">
      <stop offset="0" stop-color="#ddd358"/>
      <stop offset=".5" stop-color="#e6b947"/>
      <stop offset="1" stop-color="#aa8012"/>
    </radialGradient>
    <radialGradient id="radial-gradient12" cx="1463" cy="2745.7" fx="1463" fy="2745.7" r="26.8" gradientTransform="translate(0 2820) scale(1 -1)" gradientUnits="userSpaceOnUse">
      <stop offset="0" stop-color="#ddd358"/>
      <stop offset=".5" stop-color="#e6b947"/>
      <stop offset="1" stop-color="#aa8012"/>
    </radialGradient>
    <radialGradient id="radial-gradient13" cx="1548.2" cy="2651.3" fx="1548.2" fy="2651.3" r="113.6" gradientTransform="translate(0 2820) scale(1 -1)" gradientUnits="userSpaceOnUse">
      <stop offset="0" stop-color="#ddd358"/>
      <stop offset=".5" stop-color="#e6b947"/>
      <stop offset="1" stop-color="#aa8012"/>
    </radialGradient>
    <radialGradient id="radial-gradient14" cx="763.9" cy="2706.8" fx="763.9" fy="2706.8" r="240" gradientTransform="translate(0 2820) scale(1 -1)" gradientUnits="userSpaceOnUse">
      <stop offset="0" stop-color="#ddd358"/>
      <stop offset=".5" stop-color="#e6b947"/>
      <stop offset="1" stop-color="#aa8012"/>
    </radialGradient>
  </defs>
  <g>
    <g class="st19">
      <text class="st20" transform="translate(336.1 364.1)"><tspan x="0" y="0">A BE</tspan></text>
      <text class="st15" transform="translate(490.7 364.1)"><tspan x="0" y="0">A</tspan></text>
      <text class="st20" transform="translate(538.6 364.1)"><tspan x="0" y="0">UTIFUL </tspan></text>
      <text class="st17" transform="translate(822.8 364.1)"><tspan x="0" y="0">W</tspan></text>
      <text class="st18" transform="translate(899.1 364.1)"><tspan x="0" y="0">A</tspan></text>
      <text class="st20" transform="translate(943.9 364.1)"><tspan x="0" y="0">Y </tspan></text>
      <text class="st16" transform="translate(1010.3 364.1)"><tspan x="0" y="0">T</tspan></text>
      <text class="st20" transform="translate(1056.7 364.1)"><tspan x="0" y="0">O LIVE</tspan></text>
    </g>
    <polygon class="st21" points="0 269 51 268.6 101.9 268.2 203.9 267.5 407.8 266.6 611.7 266.1 815.6 265.9 1019.5 266.1 1223.4 266.6 1427.3 267.5 1529.2 268.2 1580.2 268.6 1631.2 269 1580.2 269.5 1529.2 269.9 1427.3 270.6 1223.4 271.5 1019.5 272 815.6 272.1 611.7 272 407.8 271.5 203.9 270.5 101.9 269.9 51 269.5 0 269"/>
    <g>
      <path class="st0" d="M144.2,146.8c9.1.8,15.5,3.2,19.1,7.3,2.7,2.8,4.3,6.4,4.8,10.8.6,4.4.8,9.4.8,14.9s-.3,10.8-.9,16c-.6,5.2-1.6,8.8-2.8,10.8-3.8,5.8-8.9,10-15.4,12.6-6.5,2.6-13.6,3.9-21.1,3.9s-19.9-2-28.1-6-15.1-9.6-20.7-16.9c-5.7-7.2-10-15.9-13-26-3-10.1-4.5-21.3-4.5-33.6s1.6-21.8,4.7-31.9c3.1-10.1,7.6-19.1,13.4-26.9,5.8-7.8,12.9-14,21.2-18.6,8.3-4.6,17.7-7,28.1-7s18.5,1.7,26.4,5c7.9,3.3,14.3,7.6,19.3,13,3.9,4.1,7.6,9.3,11.1,15.6,3.4,6.3,6.1,13,7.8,20h2.8v-51.4h-2.1c-2,2.7-3.8,5-5.2,6.8-1.4,1.9-2.3,2.8-2.6,2.8s-1.8-.8-4.5-2.5c-2.7-1.7-6.5-3.5-11.4-5.4-4.9-2-11-3.8-18.3-5.4-7.2-1.7-15.6-2.5-25-2.5-15.7,0-29.1,2.2-40.1,6.7s-20.3,10.4-27.8,17.8c-5.3,5.2-9.8,10.7-13.3,16.5-3.5,5.8-6.3,11.6-8.2,17.2-2,5.7-3.3,11-4.1,16.1-.8,5.1-1.2,9.6-1.2,13.6,0,13.4,2.2,25.4,6.5,36.2s10.5,19.9,18.6,27.3c8.1,7.5,18,13.1,29.8,17,11.8,3.9,25.1,5.8,40.1,5.8s15.1-.8,22.6-2.4,14.4-3.5,20.6-5.8c6.2-2.3,11.5-4.5,15.8-6.7,4.3-2.2,7-3.8,8.1-4.7v-34.4c0-3.6,0-7.2.2-10.8.2-3.6.8-6.3,1.9-8,1.4-2.2,3.7-3.8,6.8-4.8,3.1-1,6.1-1.7,8.7-2v-2.4h-69.1v2.4h0Z"/>
      <path class="st1" d="M303.6,115c-2.8-2.4-6.1-3.5-10-3.5s-9.2,1.3-13,4c-3.8,2.7-7,5.9-9.7,9.6-2.7,3.7-4.9,7.3-6.6,11-1.7,3.6-3,6.4-3.8,8.2h-.5l.5-32.8h-1.4l-30.9,12v1.4c1.9.8,3.8,1.8,5.7,2.9,1.9,1.2,3.5,2.2,4.9,2.9,1.1.8,1.8,1.5,2,2.1.2.6.3,1.6.3,2.8v79.7c0,2.5-1.3,4.3-3.9,5.4-2.6,1.1-5.7,1.8-9.3,2.1v2.4h52.8v-2.4c-1.6-.3-3.4-.5-5.5-.6s-4.2-.3-6.1-.6c-2-.3-3.7-.9-5.3-1.6-1.6-.8-2.6-1.9-3.1-3.3v-67.9c.9-2.4,2-4.8,3.3-7.4s2.7-4.9,4.2-6.9,3.3-3.7,5.1-5.1c1.8-1.3,3.7-2,5.5-2s3.9.4,5.2,1.3c1.3.9,2.4,1.9,3.5,2.9,1.1,1.1,2.4,2.1,3.9,2.9,1.5.9,3.5,1.3,6,1.3s5-1.1,7.1-3.4c2-2.3,3.1-5.1,3.1-8.6s-1.4-6.6-4.1-9h0Z"/>
      <path class="st6" d="M410.1,208c-1.7,1.5-4.4,2.2-8,2.2s-5.9-1.1-8.4-3.4-3.7-6.9-3.7-14,0-10.2.1-14.7.1-8.8.1-13.1,0-8.6.1-13.2c0-4.6.1-9.7.1-15.3s0-5.4-.2-8.1-.6-4.7-1.2-5.8c-1.6-3.1-4.2-5.8-7.8-7.9-3.6-2.1-7.5-3.2-11.6-3.2s-4.7.5-7.9,1.4-6.8,2.2-10.6,3.8-7.9,3.5-12.1,5.7c-4.2,2.2-8.4,4.5-12.5,6.8-1.3.8-2.7,1.6-4.4,2.6s-3.2,2-4.6,3.3c-1.4,1.3-2.6,2.7-3.5,4.2-.9,1.6-1.4,3.3-1.4,5.2s.9,4.4,2.7,6.2c1.8,1.8,4,2.7,6.5,2.7s5.1-.9,7.4-2.6,3.4-3.7,3.4-5.9v-10.6c0-.9.6-2.1,1.7-3.4,1.1-1.3,2.6-2.7,4.5-4,1.9-1.3,4-2.4,6.5-3.3,2.4-.9,4.9-1.3,7.4-1.3,3.8,0,6.8.5,9.2,1.5,2.4,1,4.2,2.2,5.5,3.4,1.3,1.3,2.3,2.5,2.8,3.7.6,1.2.8,1.9.8,2.2v24.3c-1.6.9-3.5,2-5.8,3.2-2.3,1.2-4.9,2.6-7.9,4.2-3,1.6-6.5,3.6-10.5,6s-8.6,5.2-13.8,8.5c-5.2,3.3-9.5,7-13.1,11.1-3.5,4.1-5.3,8.3-5.3,12.7s.7,7.5,2,10.4,3.1,5.1,5.2,6.9c2.1,1.8,4.5,3.1,7.1,3.8s5.1,1.1,7.7,1.1c4.2,0,8.1-.7,11.7-2s6.8-3.1,9.7-5.3c2.9-2.2,5.4-4.6,7.5-7.1,2.1-2.5,3.8-4.8,5.1-6.8l.5.2c0,7.9,2.1,13.4,6.2,16.5,4.2,3.1,8.9,4.7,14.3,4.7s6.3-.6,9.1-1.8c2.8-1.2,5.1-2.9,7.2-5.2,2-2.3,3.7-4.8,4.9-7.7s2-5.7,2.1-8.7h-1.4c-.6,2.4-1.8,4.3-3.5,5.8h0ZM371.2,197.5c0,2.7-.9,4.9-2.8,6.6-2.7,2.7-5.6,4.5-8.7,5.4-3.2.9-6.8,1.4-10.8,1.4s-8.2-1.6-11.1-4.9-4.2-7-4.2-11.1,1.4-7.7,4.4-11,6.4-6.2,10.4-8.8c4-2.7,8.1-5.1,12.4-7.4s7.8-4.4,10.6-6.5v36.3h0Z"/>
      <path class="st9" d="M498.9,204.9c-5.7,3.2-13.4,4.8-23.1,4.8s-11.7-1.1-16.6-3.4-9.2-5.5-12.6-9.7c-3.5-4.2-6.1-9.2-8-15.1s-2.8-12.4-2.8-19.4.9-12.5,2.6-18.1c1.7-5.7,4.1-10.6,7.1-14.9,3-4.2,6.5-7.6,10.6-10.1,4.1-2.5,8.6-3.8,13.4-3.8s11.4,1.9,14.5,5.8c3.1,3.8,4.6,8.7,4.6,14.5s-.4,5.8-1.2,8c.6,2.4,2,4.3,4.1,5.9,2.1,1.6,4.5,2.4,7.2,2.4s6.2-1.2,8.6-3.6c2.4-2.4,3.7-5.3,3.7-8.6s-1.2-8.6-3.7-12c-2.4-3.4-5.6-6.4-9.5-8.7-3.9-2.4-8.4-4.2-13.4-5.4-5-1.3-10.1-1.9-15.3-1.9-7.7,0-14.8,1.6-21.3,4.7-6.5,3.2-12.1,7.3-16.8,12.5-4.7,5.2-8.4,11.2-11.1,18-2.7,6.8-4,14-4,21.6s1.3,15.6,3.9,22.6c2.6,7.1,6.2,13.2,10.7,18.5,4.6,5.3,10.1,9.4,16.5,12.3,6.4,2.9,13.4,4.4,21,4.4s11.5-.9,16.6-2.6,9.7-4.2,13.8-7.4c4.1-3.2,7.5-6.9,10.4-11.1,2.8-4.2,4.9-8.6,6.4-13.3l-1.9-.9c-3.8,6.3-8.5,11-14.1,14.3h0Z"/>
      <path class="st5" d="M601.3,203.7c-5.9,4-12.8,6-20.6,6s-13.6-1.3-19.1-4c-5.5-2.7-10.1-6.3-13.7-11-3.6-4.6-6.4-10-8.2-16s-2.8-12.4-2.8-19,0-3.4.2-5.1c.2-1.6.2-3.1.2-4.4h75.7c-.5-6.6-2-12.3-4.5-17.2-2.5-4.9-5.8-8.9-9.8-12.1s-8.7-5.6-14.1-7.2-11.2-2.4-17.3-2.4-14.4,1.6-20.6,4.8c-6.2,3.2-11.5,7.4-15.8,12.6-4.3,5.2-7.7,11-10,17.6s-3.5,13.1-3.5,19.7,1.3,15.9,3.8,23.2c2.5,7.3,6.1,13.7,10.7,19.1,4.6,5.4,10.2,9.6,16.8,12.6,6.6,3,13.9,4.5,21.9,4.5s12.3-1.2,17.6-3.5c5.3-2.4,9.8-5.3,13.6-9,3.8-3.6,6.8-7.6,9-11.9,2.2-4.3,3.6-8.2,4.2-11.7l-1.9-.5c-1.9,5.8-5.8,10.7-11.7,14.7h0ZM540.4,138.9c1.4-3.5,3.4-7,6-10.5,2.6-3.4,5.7-6.5,9.2-9.1,3.5-2.6,7.5-3.9,11.9-3.9,6.8,0,12.1,2.1,16.2,6.2s6,9.2,6,15-.3,3.9-.8,4.9c-.6,1.1-1.4,2.3-2.5,3.5-1.6.6-3.4,1-5.4,1.2-2,.2-4.2.2-6.6.2-3.6,0-6.9,0-9.9.1s-5.9.2-8.6.2c-2.8,0-5.5.1-8.4.1h-9.7c.3-1.9,1.2-4.6,2.6-8.1h0Z"/>
      <path class="st7" d="M951.2,203.7c-5.9,4-12.8,6-20.6,6s-13.6-1.3-19.1-4c-5.5-2.7-10.1-6.3-13.7-11-3.6-4.6-6.4-10-8.2-16s-2.8-12.4-2.8-19,0-3.4.2-5.1c.1-1.6.2-3.1.2-4.4h75.7c-.5-6.6-2-12.3-4.5-17.2-2.5-4.9-5.8-8.9-9.8-12.1s-8.7-5.6-14.1-7.2-11.2-2.4-17.3-2.4-14.4,1.6-20.6,4.8c-6.2,3.2-11.5,7.4-15.8,12.6s-7.7,11-10,17.6-3.5,13.1-3.5,19.7,1.3,15.9,3.8,23.2c2.5,7.3,6.1,13.7,10.7,19.1,4.6,5.4,10.2,9.6,16.9,12.6,6.6,3,13.9,4.5,21.9,4.5s12.3-1.2,17.6-3.5c5.3-2.4,9.8-5.3,13.6-9,3.8-3.6,6.8-7.6,9-11.9,2.2-4.3,3.6-8.2,4.2-11.7l-1.9-.5c-1.9,5.8-5.8,10.7-11.7,14.7h0ZM890.2,138.9c1.4-3.5,3.4-7,6-10.5,2.6-3.4,5.7-6.5,9.2-9.1,3.5-2.6,7.5-3.9,11.9-3.9,6.8,0,12.1,2.1,16.1,6.2s6,9.2,6,15-.3,3.9-.8,4.9c-.6,1.1-1.4,2.3-2.5,3.5-1.6.6-3.4,1-5.4,1.2-2,.2-4.2.2-6.6.2-3.6,0-6.9,0-9.9.1-3,0-5.9.2-8.6.2-2.8,0-5.5.1-8.4.1h-9.7c.3-1.9,1.2-4.6,2.6-8.1h0Z"/>
      <path class="st3" d="M1026.7,159.8c-3-.8-6.5-1.6-10.6-2.5s-7.9-1.7-11.3-2.5c-5-1.3-9.2-3.1-12.5-5.7-3.3-2.5-4.9-6.7-4.9-12.5s.6-6.8,1.9-9.6c1.3-2.8,2.9-5,4.8-6.8,2-1.8,4.2-3.2,6.8-4.1,2.6-.9,5.2-1.4,7.9-1.4,4.4,0,8.3.8,11.7,2.4,3.4,1.6,6.4,3.8,9.1,6.7,2.7,2.9,5.1,6.4,7.3,10.4,2.2,4,4.4,8.4,6.6,13.1l1.9-.5-2.8-29.2c-4.6-1.7-9.4-3.2-14.4-4.4-5-1.2-10.8-1.8-17.4-1.8s-10.1.8-14.6,2.2c-4.6,1.5-8.6,3.7-12,6.5s-6.2,6.2-8.2,10.1c-2,3.9-3.1,8.3-3.1,13.2,0,7.1,1.8,13.1,5.5,18.1,3.7,5,8.5,8.6,14.4,10.6,3.1,1.1,6.6,2.1,10.6,3.1,3.9.9,8,1.8,12.2,2.6,5.3,1.1,9.5,3.3,12.6,6.5s4.6,7.3,4.6,12.1c0,9-2.2,15.6-6.7,19.9-4.5,4.3-10.4,6.5-18,6.5s-9.6-1.1-13.4-3.4c-3.8-2.3-7-5.2-9.6-8.7-2.7-3.5-4.9-7.4-6.8-11.6-1.9-4.2-3.4-8.1-4.7-11.9h-1.9v31.1c5.2,2.4,10.8,4.2,17,5.4,6.1,1.3,12.6,1.9,19.6,1.9s11.4-.6,16.6-1.9c5.3-1.3,9.9-3.3,14-6.1,4.1-2.8,7.3-6.5,9.8-11,2.4-4.5,3.6-9.8,3.6-15.9s-2.5-14.8-7.4-20.3-11-9.1-18-10.8h0Z"/>
      <path class="st2" d="M1124.5,210.8c-3,1.5-6.8,2.2-11.3,2.2s-10-1.8-13.4-5.4c-3.5-3.6-5.2-9.4-5.2-17.4v-62h35.8l7.3-14.4h-43.6v-20.5h-1.9l-34,32.3v2.6h17.2c0,10.4,0,22.2-.2,35.5s-.2,27.3-.2,42.1.7,5,2.2,7.4c1.5,2.4,3.4,4.6,5.7,6.6,2.3,2,5,3.5,8,4.5,3,1,6.2,1.5,9.5,1.5,5,0,9.4-.6,13.1-1.8,3.7-1.2,6.9-2.8,9.7-4.9s4.9-4.5,6.6-7.1c1.6-2.6,2.9-5.1,3.9-7.4l-1.4-.7c-2.2,3.1-4.8,5.5-7.8,6.9h0Z"/>
      <path class="st8" d="M1243.5,221.6c-1.4-.4-2.6-1-3.5-1.8-.9-.8-1.4-1.7-1.4-2.8v-69.5c0-5.2-.4-10-1.3-14.4-.9-4.4-2.4-8.2-4.5-11.4-2.1-3.2-4.9-5.7-8.4-7.5-3.5-1.8-7.9-2.7-13-2.7s-10.2.9-14.7,2.7c-4.5,1.8-8.4,4-11.9,6.5-3.4,2.5-6.3,5.2-8.6,8-2.3,2.8-4,5.3-5.1,7.5l-.5-.2.7-81.8h-1.9l-31.6,14.4v1.4c2,1.3,4.1,2.4,6.2,3.4,2.1,1,3.8,2.1,5.1,3.2,1.1.8,1.8,1.5,2,2.1.2.6.4,1.6.4,2.8v133.9c0,3-1.5,4.9-4.4,5.8-2.9.9-6.2,1.4-9.8,1.8v2.4h46.9v-2.4c-1.6-.3-3.1-.6-4.7-.7-1.6-.1-3-.4-4.2-.8-1.3-.4-2.3-1-3.1-1.8-.8-.8-1.2-1.9-1.2-3.3v-72.4c0-1.3.3-2.6.8-4.1.6-1.5,1-2.5,1.3-2.9,2.4-3.4,5.5-6.2,9.4-8.2,3.9-2,8.7-3.1,14.4-3.1s8,.8,10.8,2.4c2.8,1.6,5.1,3.8,6.7,6.6s2.8,6.2,3.4,10.1c.6,3.9.9,8.2.9,12.7v58.9c0,2.5-1.4,4.1-4.2,4.8s-6.4,1.2-10.6,1.5v2.6h48.3v-2.1c-1.4-.1-2.9-.4-4.5-.6-1.6-.2-3.1-.6-4.5-.9h0Z"/>
      <path class="st4" d="M1343.6,203.7c-5.9,4-12.8,6-20.6,6s-13.6-1.3-19.1-4c-5.5-2.7-10.1-6.3-13.7-11-3.6-4.6-6.4-10-8.2-16-1.9-6.1-2.8-12.4-2.8-19s0-3.4.2-5.1c.2-1.6.2-3.1.2-4.4h75.7c-.5-6.6-2-12.3-4.5-17.2-2.5-4.9-5.8-8.9-9.8-12.1s-8.7-5.6-14.1-7.2-11.2-2.4-17.3-2.4-14.4,1.6-20.6,4.8c-6.2,3.2-11.5,7.4-15.8,12.6s-7.7,11-10,17.6c-2.4,6.5-3.5,13.1-3.5,19.7s1.3,15.9,3.8,23.2c2.5,7.3,6.1,13.7,10.7,19.1s10.2,9.6,16.9,12.6c6.6,3,13.9,4.5,21.9,4.5s12.3-1.2,17.6-3.5c5.3-2.4,9.8-5.3,13.6-9,3.8-3.6,6.8-7.6,9-11.9,2.2-4.3,3.6-8.2,4.2-11.7l-1.9-.5c-1.9,5.8-5.8,10.7-11.7,14.7h0ZM1282.7,138.9c1.4-3.5,3.4-7,6-10.5,2.6-3.4,5.7-6.5,9.2-9.1,3.5-2.6,7.5-3.9,11.9-3.9,6.8,0,12.1,2.1,16.1,6.2s6,9.2,6,15-.3,3.9-.8,4.9c-.6,1.1-1.4,2.3-2.5,3.5-1.6.6-3.4,1-5.4,1.2-2.1.2-4.2.2-6.6.2-3.6,0-6.9,0-9.9.1-3,0-5.9.2-8.6.2-2.8,0-5.5.1-8.4.1h-9.7c.3-1.9,1.2-4.6,2.6-8.1h0Z"/>
      <path class="st13" d="M1426.9,210.8c-3,1.5-6.8,2.2-11.3,2.2s-10-1.8-13.4-5.4c-3.5-3.6-5.2-9.4-5.2-17.4v-62h35.8l7.3-14.4h-43.6v-20.5h-1.9l-34,32.3v2.6h17.2c0,10.4,0,22.2-.2,35.5s-.2,27.3-.2,42.1.7,5,2.2,7.4c1.5,2.4,3.4,4.6,5.7,6.6,2.3,2,5,3.5,8,4.5,3,1,6.2,1.5,9.5,1.5,5,0,9.4-.6,13.1-1.8,3.7-1.2,6.9-2.8,9.7-4.9s4.9-4.5,6.6-7.1c1.6-2.6,2.9-5.1,3.9-7.4l-1.4-.7c-2.2,3.1-4.8,5.5-7.8,6.9h0Z"/>
      <path class="st10" d="M1479.5,221.8c-1.4-.3-2.6-.8-3.6-1.5-1-.7-1.7-1.8-2-3.4v-105.3h-1.4l-31.8,10.4v1.4c2.2.8,4.3,1.7,6.2,2.6,2,.9,3.6,1.9,5.1,2.8,1.1.8,1.8,1.6,2,2.6.2.9.4,2,.4,3.3v80.8c0,1.4-.5,2.6-1.5,3.5s-2.3,1.7-3.8,2.2c-1.5.6-3.2.9-5.1,1.2-1.9.2-3.8.4-5.7.6v2.4h50.7v-2.4c-1.6-.3-3.2-.5-4.8-.6-1.6,0-3.2-.3-4.6-.6h0Z"/>
      <path class="st14" d="M1463,86.9c3.6,0,6.6-1.2,9.1-3.7,2.4-2.4,3.6-5.5,3.6-9.1s-1.2-6.6-3.6-9c-2.4-2.4-5.5-3.5-9.1-3.5s-6.6,1.2-9.1,3.5c-2.4,2.4-3.6,5.3-3.6,9s1.3,6.4,3.8,9c2.5,2.5,5.5,3.8,9,3.8h0Z"/>
      <path class="st12" d="M1595.9,190.6c-3.8,6.3-8.5,11-14.1,14.3s-13.4,4.8-23.1,4.8-11.7-1.1-16.6-3.4c-4.9-2.3-9.2-5.5-12.6-9.7-3.5-4.2-6.1-9.2-8-15.1-1.9-5.9-2.8-12.4-2.8-19.4s.9-12.5,2.6-18.1c1.7-5.7,4.1-10.6,7.1-14.9,3-4.2,6.5-7.6,10.6-10.1,4.1-2.5,8.6-3.8,13.4-3.8s11.4,1.9,14.5,5.8c3.1,3.8,4.6,8.7,4.6,14.5s-.4,5.8-1.2,8c.6,2.4,2,4.3,4.1,5.9,2.1,1.6,4.5,2.4,7.2,2.4s6.2-1.2,8.6-3.6c2.4-2.4,3.6-5.3,3.6-8.6s-1.2-8.6-3.6-12c-2.4-3.4-5.6-6.4-9.5-8.7-3.9-2.4-8.4-4.2-13.4-5.4-5-1.3-10.1-1.9-15.3-1.9-7.7,0-14.8,1.6-21.3,4.7-6.5,3.2-12.1,7.3-16.9,12.5-4.7,5.2-8.4,11.2-11.1,18-2.7,6.8-4,14-4,21.6s1.3,15.6,3.9,22.6c2.6,7.1,6.2,13.2,10.7,18.5,4.6,5.3,10.1,9.4,16.5,12.3,6.4,2.9,13.4,4.4,21,4.4s11.5-.9,16.6-2.6c5.1-1.7,9.7-4.2,13.8-7.4,4.1-3.2,7.5-6.9,10.4-11.1,2.8-4.2,4.9-8.6,6.4-13.3l-1.9-.9h0Z"/>
      <path class="st11" d="M650.6,226.5h226.5L763.9,0l-113.2,226.5h0ZM767.6,80l4.1,8.3h-7.8v1.6h8.6l4.1,8.3h-12.8v1.6h13.6l4.1,8.3h-17.7v1.6h18.5l4.1,8.3h-22.7v1.6h23.5l4.1,8.3h-27.6v1.6h28.4l4.1,8.3h-32.6v1.6h33.4l4.1,8.3h-37.5v1.6h38.3l4.1,8.3h-42.5v1.6h43.3l4.1,8.3h-47.4v1.6h48.2l4.1,8.3h-52.4v1.6h53.2l4.1,8.3h-57.3v1.6h58.1l4.1,8.3h-62.3v1.6h63.1l4.1,8.3h-67.2v1.6h68l4.1,8.3h-72.2v1.6h73l3.1,6.2h-76.1v-6.2h-73l.8-1.6h72.2v-8.3h-68l.8-1.6h67.2v-8.3h-63.1l.8-1.6h62.3v-8.3h-58.1l.8-1.6h57.3v-8.3h-53.2l.8-1.6h52.4v-8.3h-48.2l.8-1.6h47.4v-8.3h-43.3l.8-1.6h42.5v-8.3h-38.3l.8-1.6h37.5v-8.3h-33.4l.8-1.6h32.6v-8.3h-28.4l.8-1.6h27.6v-8.3h-23.5l.8-1.6h22.7v-8.3h-18.5l.8-1.6h17.7v-8.3h-13.6l.8-1.6h12.8v-8.3h-8.6l.8-1.6h7.8v-8.3h-3.7l.8-1.6h2.9v-5.8l2.9,5.8h-2.9v1.6h3.7,0Z"/>
    </g>
  </g>
  <g>
    <path d="M1604.8,90.2h-7.1v-5h20.1v5h-7.1v21.2h-5.9v-21.2h0Z"/>
    <path d="M1643,101.4c-.1-3.2-.2-6.9-.2-10.8h0c-.9,3.3-1.9,7.1-2.9,10.1l-3.2,10.2h-4.6l-2.8-10.1c-.9-3.1-1.7-6.8-2.4-10.2h0c-.1,3.5-.3,7.6-.4,10.8l-.5,9.9h-5.5l1.7-26.2h7.9l2.6,8.7c.9,3,1.6,6.3,2.2,9.4h.2c.7-3,1.6-6.5,2.5-9.4l2.8-8.7h7.8l1.4,26.2h-5.8l-.4-10h0Z"/>
  </g>
</svg>