<?xml version="1.0" encoding="UTF-8"?>
<svg id="Layer_1" xmlns="http://www.w3.org/2000/svg" version="1.1" viewBox="0 0 1631.2 390.2">
  <!-- Generator: Adobe Illustrator 30.2.1, SVG Export Plug-In . SVG Version: 2.1.1 Build 1)  -->
  <defs>
    <style>
      .st0, .st1 {
        isolation: isolate;
      }

      .st2, .st1 {
        fill: #09441e;
      }

      .st1 {
        font-family: Aboreto-Regular, Aboreto;
        font-size: 74.9px;
      }

      .st3 {
        fill: #775d32;
      }
    </style>
  </defs>
  <g>
    <polygon class="st2" points="675.8 26.2 739.6 26.2 844.7 252.6 781.8 252.6 675.8 26.2"/>
    <polygon class="st2" points="799 26.2 862.8 26.2 968 252.6 905 252.6 799 26.2"/>
    <polygon class="st2" points="625.5 132.2 572.4 252.6 634.4 252.6 691.1 132.2 625.5 132.2"/>
    <polygon class="st2" points="798.5 26.2 862.3 26.2 967.5 252.6 904.6 252.6 798.5 26.2"/>
    <polygon class="st2" points="798.5 26.2 862.3 26.2 967.5 252.6 904.6 252.6 798.5 26.2"/>
    <rect class="st3" x="77.3" y="26.2" width="31.4" height="226.5"/>
    <path class="st3" d="M279,97c0-11-3.8-20.3-11.5-28-7.7-7.7-16.9-11.5-27.7-11.5s-13,1.2-18.3,3.7-9.3,5.8-12.1,9.9-4.9,8.6-6.1,13.4c-1.3,4.8-1.3,9.7,0,14.4,1.3,4.8,3.3,9.2,6.1,13.3,2.8,4.1,6.8,7.4,12.1,9.9s11.4,3.7,18.3,3.7c11,0,21,1.8,29.9,5.3,9,3.6,16.2,8.4,21.7,14.4s9.8,12.8,12.8,20.4,4.5,15.3,4.5,23.3-1.5,15.8-4.5,23.3c-3,7.6-7.3,14.3-12.8,20.2s-12.7,10.7-21.7,14.4-18.9,5.5-29.9,5.5c-19.6,0-36.4-6.9-50.1-20.7-13.8-13.8-20.7-30.5-20.7-50.1h31.4c0,11,3.8,20.3,11.5,28,7.6,7.7,17,11.5,28,11.5s11.9-1.2,16.8-3.6c5-2.4,8.7-5.4,11.2-9.2s4.3-7.9,5.5-12.4,1.2-9.1,0-13.6-3-8.7-5.5-12.5-6.2-6.8-11.2-9.2-10.6-3.6-16.8-3.6c-11.2,0-21.4-1.9-30.4-5.7s-16.4-8.7-22-14.9c-5.6-6.1-9.9-13.2-12.9-21-3-7.9-4.5-15.8-4.5-23.9s1.5-16.1,4.5-23.9c3-7.9,7.3-14.9,12.9-21,5.6-6.2,12.9-11.1,22-14.9,9.1-3.8,19.2-5.7,30.4-5.7,19.4,0,36,6.9,49.8,20.7s20.7,30.5,20.7,50.2h-31.4Z"/>
    <polygon class="st3" points="480.7 123.6 480.7 26.2 512.1 26.2 512.1 252.6 480.7 252.6 480.7 155.3 402.1 155.3 402.1 252.6 370.7 252.6 370.7 26.2 402.1 26.2 402.1 123.6 480.7 123.6"/>
    <path class="st3" d="M1098.7,26.2c19.4,0,36,6.9,49.8,20.7s20.7,30.5,20.7,50.2v84.8c0,19.6-6.9,36.4-20.7,50.1-13.8,13.8-30.4,20.7-49.8,20.7h-70.8V26.2h70.8ZM1137.8,181.8v-84.8c0-11-3.8-20.3-11.5-28-7.7-7.7-16.9-11.5-27.7-11.5h-39.5v163.7h39.5c10.8,0,20-3.8,27.7-11.5,7.7-7.6,11.5-17,11.5-28"/>
    <path class="st3" d="M1370.9,252.6h-31.4l-55-85.1h-23.6v85.1h-31.4V26.2h70.8c19.4,0,36,6.9,49.8,20.7s20.7,30.5,20.7,50.2-5.3,31.7-15.8,44.6c-10.6,12.9-23.9,21.1-40.1,24.6l56,86.4h0ZM1300.4,57.5h-39.5v78.6h39.5c10.8,0,20-3.8,27.7-11.5s11.5-16.9,11.5-27.8-3.8-20.2-11.5-27.8c-7.7-7.7-16.9-11.5-27.7-11.5"/>
    <rect class="st3" x="1430.8" y="26.2" width="31.4" height="226.5"/>
    <rect class="st3" x="1522.5" y="26.2" width="31.4" height="226.5"/>
    <g class="st0">
      <g class="st0">
        <text class="st1" transform="translate(336.1 390.2)"><tspan x="0" y="0">A BE</tspan></text>
      </g>
      <g class="st0">
        <text class="st1" transform="translate(490.7 390.2)"><tspan x="0" y="0">A</tspan></text>
      </g>
      <g class="st0">
        <text class="st1" transform="translate(538.6 390.2)"><tspan x="0" y="0">UTIFUL</tspan></text>
      </g>
      <g class="st0">
        <text class="st1" transform="translate(822.8 390.2)"><tspan x="0" y="0">W</tspan></text>
      </g>
      <g class="st0">
        <text class="st1" transform="translate(899.1 390.2)"><tspan x="0" y="0">A</tspan></text>
      </g>
      <g class="st0">
        <text class="st1" transform="translate(943.9 390.2)"><tspan x="0" y="0">Y</tspan></text>
      </g>
      <g class="st0">
        <text class="st1" transform="translate(1010.3 390.2)"><tspan x="0" y="0">T</tspan></text>
      </g>
      <g class="st0">
        <text class="st1" transform="translate(1056.7 390.2)"><tspan x="0" y="0">O LIVE</tspan></text>
      </g>
    </g>
    <path class="st3" d="M0,295.2c519.8-4.2,1060.4-4.1,1580.2-.5l51,.5-51,.5c-519.8,3.6-1060.5,3.7-1580.2-.5h0Z"/>
  </g>
  <g>
    <path d="M1561,5h-7.1V0h20.1v5h-7.2v21.2h-5.9V5h0Z"/>
    <path d="M1599.2,16.1c0-3.1-.2-6.9-.2-10.8h0c-.8,3.3-1.9,7.1-2.9,10.1l-3.2,10.2h-4.6l-2.8-10.1c-.8-3.1-1.7-6.8-2.4-10.2h0c0,3.5-.3,7.6-.4,10.8l-.5,9.9h-5.5l1.4-26h7.9l2.6,8.7c.8,3,1.6,6.3,2.2,9.4h.2c.7-3,1.6-6.5,2.5-9.4l2.7-8.7h7.8l1.4,26.2h-5.8l-.4-10h0Z"/>
  </g>
</svg>